<svg width="203" height="48" fill="none" xmlns="http://www.w3.org/2000/svg"><path d="M0 47.18V2.58h25.68v4.76H5.64v15.1h16.99v4.76H5.64v19.98H0ZM44.95 48c-2.68 0-5.2-.68-7.55-2.04a15.44 15.44 0 0 1-5.64-5.91c-1.4-2.59-2.1-5.7-2.1-9.32 0-3.72.7-6.87 2.1-9.45a15.44 15.44 0 0 1 5.64-5.91 14.85 14.85 0 0 1 7.55-2.04 14.6 14.6 0 0 1 13.11 7.95c1.45 2.58 2.17 5.73 2.17 9.45 0 3.63-.72 6.73-2.17 9.32A14.6 14.6 0 0 1 44.95 48Zm0-4.62a8.14 8.14 0 0 0 6.86-3.47c1.77-2.36 2.65-5.42 2.65-9.18 0-3.8-.88-6.89-2.65-9.25a8.09 8.09 0 0 0-6.86-3.53 8.2 8.2 0 0 0-6.87 3.53c-1.76 2.36-2.65 5.44-2.65 9.25 0 3.76.89 6.82 2.65 9.18a8.25 8.25 0 0 0 6.87 3.47ZM68.93 47.18V14.14h4.62l.48 4.76h.2A21.59 21.59 0 0 1 79 14.96a10.13 10.13 0 0 1 5.5-1.63c2.54 0 4.5.56 5.91 1.7a9.36 9.36 0 0 1 3.2 4.62 29.62 29.62 0 0 1 5.23-4.56 9.99 9.99 0 0 1 5.64-1.76c3.4 0 5.91 1.1 7.54 3.33 1.68 2.17 2.52 5.37 2.52 9.58v20.94h-5.58V27c0-3.08-.5-5.32-1.5-6.73-.99-1.4-2.53-2.1-4.61-2.1-2.45 0-5.21 1.7-8.3 5.1v23.92h-5.56V27c0-3.08-.5-5.32-1.5-6.73-1-1.4-2.56-2.1-4.69-2.1-2.44 0-5.2 1.7-8.29 5.1v23.92h-5.57ZM125.27 47.18V14.14h5.57v33.04h-5.57Zm2.85-39.84c-1.09 0-2-.31-2.72-.95a3.68 3.68 0 0 1-1.02-2.72c0-1.09.34-1.97 1.02-2.65A3.82 3.82 0 0 1 128.12 0a3.58 3.58 0 0 1 3.74 3.67c0 1.13-.36 2.04-1.09 2.72-.68.64-1.56.95-2.65.95ZM141.99 47.18V14.14h4.62l.48 4.76h.2a25.33 25.33 0 0 1 5.03-3.94 11.3 11.3 0 0 1 6.05-1.63c3.48 0 6.02 1.1 7.6 3.33 1.64 2.17 2.45 5.37 2.45 9.58v20.94h-5.57V27c0-3.08-.5-5.32-1.5-6.73-1-1.4-2.58-2.1-4.75-2.1-1.68 0-3.2.42-4.55 1.28-1.32.87-2.81 2.14-4.49 3.81v23.93H142ZM186.76 48c-2.76 0-5.07-.82-6.93-2.45-1.81-1.67-2.72-3.99-2.72-6.93 0-3.63 1.61-6.4 4.83-8.3 3.26-1.95 8.4-3.3 15.42-4.08 0-1.4-.2-2.74-.61-4a5.75 5.75 0 0 0-2.04-3.07c-.95-.81-2.33-1.22-4.15-1.22-1.9 0-3.69.36-5.36 1.09a26.15 26.15 0 0 0-4.49 2.44l-2.17-3.87a34.3 34.3 0 0 1 5.64-2.86 18.75 18.75 0 0 1 7.34-1.42c4.03 0 6.95 1.24 8.76 3.74 1.81 2.44 2.72 5.73 2.72 9.85v20.26h-4.62l-.48-3.94h-.2a28.22 28.22 0 0 1-5.1 3.33 12.38 12.38 0 0 1-5.84 1.43Zm1.63-4.49c1.59 0 3.08-.38 4.49-1.15 1.4-.77 2.9-1.86 4.48-3.27v-9.18c-5.48.68-9.33 1.7-11.55 3.06-2.18 1.36-3.26 3.1-3.26 5.24 0 1.86.56 3.22 1.7 4.08a6.9 6.9 0 0 0 4.14 1.22Z" fill="#000"/></svg>
