<svg xmlns="http://www.w3.org/2000/svg" width="32" height="30" fill="none"><path stroke="#000" stroke-width="4" d="M3.359 21.026c-1.307-5.229-1.96-7.843-.589-9.6 1.373-1.758 4.067-1.758 9.457-1.758h7.054c5.39 0 8.084 0 9.456 1.758 1.373 1.757.72 4.371-.588 9.6-.831 3.325-1.247 4.987-2.487 5.955s-2.953.968-6.38.968h-7.055c-3.428 0-5.142 0-6.382-.968-1.24-.968-1.655-2.63-2.486-5.955Z"/><path stroke="#000" stroke-width="4" d="m27.179 10.43-1.082-3.97c-.418-1.53-.627-2.295-1.055-2.872a3.809 3.809 0 0 0-1.67-1.276c-.67-.261-1.462-.261-3.049-.261M4.327 10.43l1.082-3.97c.417-1.53.626-2.295 1.054-2.872a3.809 3.809 0 0 1 1.671-1.276c.669-.261 1.462-.261 3.048-.261"/></svg>