<svg width="30" height="31" viewBox="0 0 30 31" fill="none" xmlns="http://www.w3.org/2000/svg">
<path fill-rule="evenodd" clip-rule="evenodd" d="M25.2698 27.5H4.73019C3.81669 27.5 3.1162 26.6913 3.2452 25.7883L4.95969 13.7883C5.06469 13.0488 5.6977 12.4999 6.44471 12.4999H7.49922V15.5C7.49922 16.328 8.17122 17 8.99923 17C9.82873 17 10.4992 16.328 10.4992 15.5V12.4999H19.4993V15.5C19.4993 16.328 20.1713 17 20.9993 17C21.8288 17 22.4993 16.328 22.4993 15.5V12.4999H23.5553C24.3023 12.4999 24.9353 13.0488 25.0403 13.7883L26.7548 25.7883C26.8838 26.6913 26.1833 27.5 25.2698 27.5ZM10.4992 7.99992C10.4992 5.5189 12.5182 3.49989 14.9993 3.49989C17.4818 3.49989 19.4993 4.9999 19.4993 7.99992V9.49993H10.4992V7.99992ZM29.9693 27.0756L27.8258 12.0755C27.6158 10.598 26.3498 9.49993 24.8558 9.49993H22.4993V7.99992C22.4993 3.49989 19.1348 0.499878 14.9993 0.499878C10.8652 0.499878 7.49922 3.8644 7.49922 7.99992V9.49993H5.60171C4.1092 9.49993 2.38418 10.598 2.17267 12.0755L0.0306723 27.0756C-0.227329 28.8831 1.17517 30.5 3.00068 30.5H26.9993C28.8248 30.5 30.2273 28.8831 29.9693 27.0756Z" fill="black"/>
</svg>
