<svg width="36" height="36" fill="none" xmlns="http://www.w3.org/2000/svg"><path d="M27.124 9.618a1.582 1.582 0 0 1-1.581-1.58V5.453c0-.875.709-1.585 1.581-1.585h2.584c.874 0 1.584.71 1.584 1.585v2.584c0 .872-.71 1.58-1.584 1.58h-2.584v.001Zm-.116-1.465h2.818V5.335h-2.818v2.818ZM18.067 13.966a4.586 4.586 0 0 0-4.581 4.582 4.586 4.586 0 0 0 4.58 4.583 4.588 4.588 0 0 0 4.585-4.583 4.588 4.588 0 0 0-4.584-4.582Zm0 7.455a2.874 2.874 0 0 1-2.87-2.872 2.873 2.873 0 0 1 2.87-2.868 2.873 2.873 0 0 1 2.87 2.868 2.875 2.875 0 0 1-2.87 2.872Z" fill="#fff"/><path d="M35.665 12.284V4.983a4.807 4.807 0 0 0-4.8-4.803H5.108a4.807 4.807 0 0 0-4.8 4.803v26.033a4.807 4.807 0 0 0 4.8 4.805h25.757c2.647 0 4.8-2.154 4.8-4.805l.005-18.324a.841.841 0 0 0-.005-.408Zm-4.8-10.391a3.092 3.092 0 0 1 3.088 3.088v6.668l-9.71-.032a9.33 9.33 0 0 0-6.262-2.41 9.303 9.303 0 0 0-4.035.914l-.351.173c-.91.416-1.556 1.047-1.62 1.104-.085.07-.176.146-.336.251H2.02V4.981c0-1.298.82-2.465 2.04-2.908l.309-.115c.003-.001.404-.067 1.444-.067h25.053v.002Zm-12.882 24.29c-4.207 0-7.63-3.425-7.63-7.635 0-4.206 3.423-7.63 7.63-7.63 4.21 0 7.637 3.424 7.637 7.63 0 4.211-3.425 7.636-7.637 7.636ZM2.019 13.363h8.198l-.12.19a9.3 9.3 0 0 0-1.457 4.996c0 5.154 4.191 9.347 9.343 9.347 5.155 0 9.35-4.193 9.35-9.347a9.29 9.29 0 0 0-1.457-4.998l-.123-.188h8.2v17.654a3.094 3.094 0 0 1-3.088 3.094H5.108a3.095 3.095 0 0 1-3.09-3.094V13.362Z" fill="#fff"/></svg>