<svg width="30" height="30" viewBox="0 0 30 30" fill="none" xmlns="http://www.w3.org/2000/svg">
<path d="M0.611092 26.1153C0.422454 26.2911 0.271153 26.503 0.166213 26.7386C0.0612737 26.9741 0.00484738 27.2283 0.00029881 27.4861C-0.00424976 27.7439 0.0431727 28 0.139739 28.2391C0.236304 28.4781 0.380034 28.6953 0.562354 28.8776C0.744674 29.06 0.961849 29.2037 1.20092 29.3003C1.44 29.3968 1.69607 29.4442 1.95387 29.4397C2.21167 29.4351 2.46591 29.3787 2.70143 29.2738C2.93695 29.1688 3.14892 29.0175 3.32469 28.8289L0.611092 26.1153ZM16.1247 16.0289C16.3133 15.8531 16.4646 15.6412 16.5696 15.4056C16.6745 15.1701 16.7309 14.9159 16.7355 14.6581C16.74 14.4003 16.6926 14.1442 16.596 13.9051C16.4995 13.6661 16.3557 13.4489 16.1734 13.2666C15.9911 13.0842 15.7739 12.9405 15.5349 12.844C15.2958 12.7474 15.0397 12.7 14.7819 12.7045C14.5241 12.7091 14.2699 12.7655 14.0344 12.8704C13.7988 12.9754 13.5869 13.1267 13.4111 13.3153L16.1247 16.0289ZM13.4111 13.3153C13.2225 13.4911 13.0712 13.703 12.9662 13.9386C12.8613 14.1741 12.8048 14.4283 12.8003 14.6861C12.7957 14.9439 12.8432 15.2 12.9397 15.4391C13.0363 15.6781 13.18 15.8953 13.3624 16.0776C13.5447 16.26 13.7618 16.4037 14.0009 16.5003C14.24 16.5968 14.4961 16.6442 14.7539 16.6397C15.0117 16.6352 15.2659 16.5787 15.5014 16.4738C15.7369 16.3688 15.9489 16.2175 16.1247 16.0289L13.4111 13.3153ZM28.9247 3.22891C29.2638 2.86494 29.4485 2.38354 29.4397 1.88613C29.4309 1.38872 29.2294 0.914132 28.8776 0.562355C28.5259 0.210577 28.0513 0.00907536 27.5539 0.000299129C27.0565 -0.0084771 26.5751 0.176158 26.2111 0.515306L28.9247 3.22891ZM16.1247 13.3153C15.9489 13.1267 15.7369 12.9754 15.5014 12.8704C15.2659 12.7655 15.0117 12.7091 14.7539 12.7045C14.4961 12.7 14.24 12.7474 14.0009 12.844C13.7618 12.9405 13.5447 13.0842 13.3624 13.2666C13.18 13.4489 13.0363 13.6661 12.9397 13.9051C12.8432 14.1442 12.7957 14.4003 12.8003 14.6581C12.8048 14.9159 12.8613 15.1701 12.9662 15.4056C13.0712 15.6412 13.2225 15.8531 13.4111 16.0289L16.1247 13.3153ZM26.2111 28.8289C26.3869 29.0175 26.5988 29.1688 26.8344 29.2738C27.0699 29.3787 27.3241 29.4351 27.5819 29.4397C27.8397 29.4442 28.0958 29.3968 28.3349 29.3003C28.5739 29.2037 28.7911 29.06 28.9734 28.8776C29.1557 28.6953 29.2995 28.4781 29.396 28.2391C29.4926 28 29.54 27.7439 29.5355 27.4861C29.5309 27.2283 29.4745 26.9741 29.3696 26.7386C29.2646 26.503 29.1133 26.2911 28.9247 26.1153L26.2111 28.8289ZM13.4111 16.0289C13.5869 16.2175 13.7988 16.3688 14.0344 16.4738C14.2699 16.5787 14.5241 16.6352 14.7819 16.6397C15.0397 16.6442 15.2958 16.5968 15.5349 16.5003C15.7739 16.4037 15.9911 16.26 16.1734 16.0776C16.3557 15.8953 16.4995 15.6781 16.596 15.4391C16.6926 15.2 16.74 14.9439 16.7355 14.6861C16.7309 14.4283 16.6745 14.1741 16.5696 13.9386C16.4646 13.703 16.3133 13.4911 16.1247 13.3153L13.4111 16.0289ZM3.32469 0.515306C2.96072 0.176158 2.47933 -0.0084771 1.98191 0.000299129C1.4845 0.00907536 1.00992 0.210577 0.658141 0.562355C0.306363 0.914132 0.104861 1.38872 0.0960849 1.88613C0.0873087 2.38354 0.271943 2.86494 0.611092 3.22891L3.32469 0.515306ZM3.32469 28.8289L16.1247 16.0289L13.4111 13.3153L0.611092 26.1153L3.32469 28.8289ZM16.1247 16.0289L28.9247 3.22891L26.2111 0.515306L13.4111 13.3153L16.1247 16.0289ZM13.4111 16.0289L26.2111 28.8289L28.9247 26.1153L16.1247 13.3153L13.4111 16.0289ZM16.1247 13.3153L3.32469 0.515306L0.611092 3.22891L13.4111 16.0289L16.1247 13.3153Z" fill="#767676"/>
</svg>
