<svg width="26" height="26" viewBox="0 0 26 26" fill="none" xmlns="http://www.w3.org/2000/svg">
<circle cx="13" cy="13" r="13" fill="#FF6347"/>
<path d="M13.0323 14.1042L12.9228 10.3403L12.9029 9.40427H13.7293L13.7094 10.3403L13.5999 14.1042H13.0323ZM13.3211 16.1952C13.1551 16.1952 13.0124 16.1388 12.8929 16.026C12.7801 15.9065 12.7236 15.7571 12.7236 15.5779C12.7236 15.3854 12.7801 15.2327 12.8929 15.1198C13.0124 15.0004 13.1551 14.9406 13.3211 14.9406C13.4804 14.9406 13.6165 15.0004 13.7293 15.1198C13.8488 15.2327 13.9086 15.3854 13.9086 15.5779C13.9086 15.7571 13.8488 15.9065 13.7293 16.026C13.6165 16.1388 13.4804 16.1952 13.3211 16.1952Z" fill="black"/>
</svg>
