<svg width="159" height="147" fill="none" xmlns="http://www.w3.org/2000/svg"><path d="M33.3 74.7C34 36.2 67 27.7 80 28c14.5 0 44 9.4 45.3 46.7 1.3 37.4-29.7 45.8-45.3 45.3-14.3-.3-47.2-8.7-46.7-45.3Z" stroke="#000" stroke-width="5"/><path transform="matrix(.28415 -.95878 .83301 .55325 60.6 146.4)" stroke="#000" stroke-width="2" d="M0-1h70.6"/><path transform="matrix(.28415 .95878 .83301 -.55325 80.5 78)" stroke="#000" stroke-width="2" d="M0-1h70.6"/><circle cx="79.6" cy="74.3" r="3.7" stroke="#000"/><path stroke="#000" stroke-width="2" d="M70.4 109.2h18.4M66.4 125.2h27.1"/><path d="M10.8 108.6c-.9-9 7-10.7 10.6-10.7 3.7 0 8.3 5.3 8 10.7-.3 5.4-4 8.2-8 8-4-.2-10-.6-10.6-8ZM24.3 108.1v7.9M16.4 116v-7.9M10.8 107.6h18.4M26.8 101.1l49.1-26M1.4 58.3c-.9-8.9 7-10.6 10.6-10.6 3.6 0 8.3 5.2 8 10.6-.3 5.4-4 8.2-8 8-4-.2-10-.6-10.6-8ZM14.9 57.8v8M7 65.8v-8M1.4 57.3h18.4M19.9 57.3l57.5 14.1M90.6 11.7c.8-9-7-10.7-10.7-10.7-3.6 0-8.2 5.3-8 10.7.3 5.4 4 8.1 8 8 4-.3 10-.7 10.7-8Z" stroke="#000"/><path transform="matrix(0 1 1 0 77.6 11.1)" stroke="#000" d="M0-.5h8"/><path transform="matrix(0 -1 -1 0 84.4 19)" stroke="#000" d="M0-.5h8"/><path stroke="#000" d="M90.6 10.6H72.2M79.9 19.8v50.7M158.2 58.3c.9-8.9-7-10.6-10.6-10.6-3.6 0-8.3 5.2-8 10.6.3 5.4 4 8.2 8 8 4-.2 10-.6 10.6-8Z"/><path transform="matrix(0 1 1 0 145.2 57.8)" stroke="#000" d="M0-.5h8"/><path transform="matrix(0 -1 -1 0 152 65.8)" stroke="#000" d="M0-.5h8"/><path stroke="#000" d="M158.2 57.3h-18.4M140 57.6 82.5 72.4M148.8 108.6c.9-9-7-10.7-10.6-10.7-3.7 0-8.3 5.3-8 10.7.3 5.4 4 8.2 8 8 4-.2 10-.6 10.6-8Z"/><path transform="matrix(0 1 1 0 135.8 108)" stroke="#000" d="M0-.5h8"/><path transform="matrix(0 -1 -1 0 142.7 116)" stroke="#000" d="M0-.5h8"/><path stroke="#000" d="M148.8 107.6h-18.4M132.8 101.1l-49.2-26"/></svg>
