<svg width="284" height="68" fill="none" xmlns="http://www.w3.org/2000/svg"><path d="M0 66V3.68h35.9v6.65H7.89v21.09h23.75v6.65H7.88V66H0ZM62.84 67.14c-3.74 0-7.25-.95-10.55-2.85a21.58 21.58 0 0 1-7.88-8.27c-1.96-3.6-2.95-7.94-2.95-13.01 0-5.2.99-9.6 2.95-13.2a21.58 21.58 0 0 1 7.88-8.27c3.3-1.9 6.81-2.85 10.55-2.85A20.43 20.43 0 0 1 81.17 29.8c2.03 3.61 3.04 8.02 3.04 13.21 0 5.07-1.01 9.4-3.04 13.02a20.43 20.43 0 0 1-18.33 11.12Zm0-6.46c3.99 0 7.19-1.62 9.6-4.84 2.46-3.3 3.7-7.57 3.7-12.83 0-5.32-1.24-9.63-3.7-12.92-2.41-3.3-5.61-4.94-9.6-4.94-3.93 0-7.13 1.65-9.6 4.94-2.47 3.3-3.7 7.6-3.7 12.92 0 5.26 1.23 9.53 3.7 12.83a11.54 11.54 0 0 0 9.6 4.84ZM96.37 66V19.83h6.46l.67 6.65h.28a30.18 30.18 0 0 1 6.65-5.51 14.17 14.17 0 0 1 7.7-2.28c3.55 0 6.3.8 8.26 2.38a13.08 13.08 0 0 1 4.47 6.45 41.4 41.4 0 0 1 7.31-6.36 13.97 13.97 0 0 1 7.89-2.47c4.75 0 8.26 1.55 10.54 4.65 2.35 3.05 3.52 7.51 3.52 13.4V66h-7.8V37.78c0-4.3-.69-7.44-2.08-9.4-1.4-1.96-3.55-2.95-6.46-2.95-3.42 0-7.28 2.38-11.6 7.13V66h-7.78V37.78c0-4.3-.7-7.44-2.1-9.4-1.38-1.96-3.57-2.95-6.55-2.95-3.42 0-7.28 2.38-11.59 7.13V66h-7.79ZM175.14 66V19.83h7.79V66h-7.8Zm3.99-55.67a5.56 5.56 0 0 1-3.8-1.33 5.14 5.14 0 0 1-1.43-3.8c0-1.52.48-2.75 1.43-3.7a5.34 5.34 0 0 1 3.8-1.43 5.01 5.01 0 0 1 5.22 5.13c0 1.58-.5 2.85-1.52 3.8a5.21 5.21 0 0 1-3.7 1.33ZM198.52 66V19.83h6.46l.66 6.65h.29a35.35 35.35 0 0 1 7.03-5.51 15.8 15.8 0 0 1 8.45-2.28c4.88 0 8.43 1.55 10.64 4.65 2.28 3.05 3.42 7.51 3.42 13.4V66h-7.79V37.78c0-4.3-.7-7.44-2.09-9.4-1.4-1.96-3.6-2.95-6.65-2.95-2.34 0-4.46.6-6.36 1.81a41.26 41.26 0 0 0-6.27 5.32V66h-7.8ZM261.11 67.14c-3.86 0-7.1-1.14-9.69-3.42-2.53-2.34-3.8-5.57-3.8-9.69 0-5.07 2.25-8.93 6.75-11.59 4.56-2.72 11.74-4.62 21.56-5.7 0-1.96-.29-3.83-.86-5.6a8.04 8.04 0 0 0-2.84-4.28c-1.34-1.14-3.27-1.71-5.8-1.71-2.66 0-5.16.5-7.5 1.52a36.55 36.55 0 0 0-6.28 3.42l-3.03-5.41a47.88 47.88 0 0 1 7.88-4c3.17-1.32 6.59-1.99 10.26-1.99 5.64 0 9.72 1.74 12.25 5.22 2.54 3.43 3.8 8.02 3.8 13.78V66h-6.45l-.67-5.51h-.29a39.5 39.5 0 0 1-7.12 4.65c-2.53 1.33-5.26 2-8.17 2Zm2.28-6.27c2.22 0 4.3-.54 6.27-1.61a35.23 35.23 0 0 0 6.27-4.56V41.87c-7.66.95-13.05 2.38-16.15 4.28-3.04 1.9-4.56 4.33-4.56 7.31 0 2.6.8 4.5 2.38 5.7a9.65 9.65 0 0 0 5.79 1.71Z" fill="#000"/></svg>