<svg width="589" height="199" fill="none" xmlns="http://www.w3.org/2000/svg"><g clip-path="url(#a)"><path d="M0 122V10.48h64.7v11.9H14.11v37.74h42.5v11.9h-42.5V122H0ZM252.81 122V39.38h11.56l1.19 11.9h.51a54.01 54.01 0 0 1 11.9-9.86c4.3-2.72 8.9-4.08 13.77-4.08 6.35 0 11.28 1.42 14.79 4.25 3.63 2.72 6.29 6.57 7.99 11.56a74.09 74.09 0 0 1 13.09-11.39 25 25 0 0 1 14.11-4.42c8.5 0 14.79 2.78 18.87 8.33 4.2 5.44 6.29 13.43 6.29 23.97V122h-13.94V71.51c0-7.7-1.25-13.32-3.74-16.83-2.5-3.51-6.35-5.27-11.56-5.27-6.12 0-13.03 4.25-20.74 12.75V122h-13.94V71.51c0-7.7-1.25-13.32-3.74-16.83-2.5-3.51-6.4-5.27-11.73-5.27-6.12 0-13.03 4.25-20.74 12.75V122h-13.94ZM393.76 122V39.38h13.94V122h-13.94Zm7.14-99.62c-2.72 0-4.99-.8-6.8-2.38-1.7-1.7-2.55-3.97-2.55-6.8 0-2.72.85-4.93 2.55-6.63a9.56 9.56 0 0 1 6.8-2.55c2.72 0 4.93.85 6.63 2.55a8.67 8.67 0 0 1 2.72 6.63c0 2.83-.9 5.1-2.72 6.8-1.7 1.59-3.91 2.38-6.63 2.38ZM435.6 122V39.38h11.55l1.2 11.9h.5a63.3 63.3 0 0 1 12.58-9.86 28.28 28.28 0 0 1 15.13-4.08c8.73 0 15.08 2.78 19.04 8.33 4.08 5.44 6.12 13.43 6.12 23.97V122h-13.94V71.51c0-7.7-1.24-13.32-3.74-16.83-2.49-3.51-6.46-5.27-11.9-5.27-4.19 0-7.99 1.08-11.39 3.23-3.28 2.15-7.02 5.33-11.22 9.52V122H435.6ZM547.6 124.04c-6.91 0-12.7-2.04-17.34-6.12-4.53-4.2-6.8-9.97-6.8-17.34 0-9.07 4.02-15.98 12.07-20.74 8.16-4.87 21.02-8.27 38.6-10.2 0-3.51-.52-6.86-1.54-10.03-.9-3.17-2.6-5.72-5.1-7.65-2.38-2.04-5.84-3.06-10.37-3.06-4.76 0-9.24.9-13.43 2.72a65.53 65.53 0 0 0-11.22 6.12l-5.44-9.69a85.75 85.75 0 0 1 14.11-7.14 46.93 46.93 0 0 1 18.36-3.57c10.09 0 17.4 3.12 21.93 9.35 4.54 6.12 6.8 14.34 6.8 24.65V122h-11.56l-1.19-9.86h-.5a70.6 70.6 0 0 1-12.76 8.33 30.99 30.99 0 0 1-14.62 3.57Zm4.08-11.22c3.97 0 7.7-.96 11.22-2.89a63.05 63.05 0 0 0 11.22-8.16V78.82c-13.71 1.7-23.35 4.25-28.9 7.65-5.44 3.4-8.16 7.76-8.16 13.09 0 4.65 1.42 8.05 4.25 10.2 2.84 2.04 6.3 3.06 10.37 3.06Z" fill="#000"/><path d="M111.3 74.72c.55-38.56 33.64-47.02 46.71-46.71 14.54 0 43.94 9.34 45.25 46.71 1.31 37.38-29.62 45.75-45.25 45.26-14.27-.26-47.22-8.66-46.7-45.26Z" stroke="#000" stroke-width="5"/><path transform="matrix(.28415 -.95878 .83301 .55325 138.63 146.42)" stroke="#000" stroke-width="2" d="M0-1h70.56"/><path transform="matrix(.28415 .95878 .83301 -.55325 158.52 78.05)" stroke="#000" stroke-width="2" d="M0-1h70.56"/><circle cx="157.62" cy="74.25" r="3.66" stroke="#000"/><path stroke="#000" stroke-width="2" d="M148.39 109.25h18.45M144.41 125.17h27.14"/><path d="M88.77 108.62c-.83-8.94 7.05-10.67 10.67-10.67 3.61 0 8.22 5.28 7.95 10.67-.26 5.4-3.97 8.14-7.95 7.96-3.98-.18-10-.6-10.67-7.96ZM102.29 108.08v7.96M94.41 116.04v-7.96M88.77 107.58h18.44M104.75 101.13l49.2-26.05M79.36 58.34c-.82-8.94 7.05-10.67 10.67-10.67s8.23 5.27 7.96 10.67c-.27 5.4-3.98 8.14-7.96 7.96-3.98-.18-10-.6-10.67-7.96ZM92.88 57.79v7.96M85.01 65.75v-7.96M79.36 57.29h18.45M97.87 57.31l57.52 14.11M168.6 11.67C169.4 2.73 161.53 1 157.91 1s-8.22 5.28-7.96 10.67c.27 5.4 3.98 8.14 7.96 7.96 3.98-.18 10-.6 10.67-7.96Z" stroke="#000"/><path transform="matrix(0 1 1 0 155.57 11.13)" stroke="#000" d="M0-.5h7.96"/><path transform="matrix(0 -1 -1 0 162.44 19.09)" stroke="#000" d="M0-.5h7.96"/><path stroke="#000" d="M168.6 10.63h-18.46M157.94 19.81v50.65M236.24 58.34c.82-8.94-7.05-10.67-10.67-10.67s-8.23 5.27-7.96 10.67c.27 5.4 3.98 8.14 7.96 7.96 3.98-.18 10-.6 10.67-7.96Z"/><path transform="matrix(0 1 1 0 223.22 57.8)" stroke="#000" d="M0-.5h7.96"/><path transform="matrix(0 -1 -1 0 230.1 65.75)" stroke="#000" d="M0-.5h7.96"/><path stroke="#000" d="M236.24 57.3H217.8M217.97 57.56l-57.51 14.83M226.84 108.62c.81-8.94-7.06-10.67-10.68-10.67-3.61 0-8.22 5.28-7.95 10.67.26 5.4 3.97 8.14 7.95 7.96 3.98-.18 10-.6 10.68-7.96Z"/><path transform="matrix(0 1 1 0 213.81 108.08)" stroke="#000" d="M0-.5h7.96"/><path transform="matrix(0 -1 -1 0 220.69 116.04)" stroke="#000" d="M0-.5h7.96"/><path stroke="#000" d="M226.84 107.58h-18.45M210.85 101.13l-49.2-26.05"/><path d="M74 194.61c4.02-12.85 17.71-51.92 77.97-53.57 60.26-1.66 168.6 51.76 149.89 54.76-21.02 3.37-59.92-1.59-65.05 0" stroke="#000" stroke-width="4" stroke-miterlimit="1.41" stroke-linecap="round" stroke-linejoin="round"/></g><defs><clipPath id="a"><path fill="#fff" d="M0 0h589v199H0z"/></clipPath></defs></svg>