<svg width="299" height="68" fill="none" xmlns="http://www.w3.org/2000/svg"><path d="m263.58 40.89-2.83 7.01h17.94l-2.82-7.01c-1.1-2.57-2.12-5.12-3.1-7.64-.97-2.58-1.57-5.46-2.55-8.13h-.36c-.91 2.67-2.22 5.55-3.19 8.13-.97 2.52-2 5.07-3.1 7.64Zm-18.22 25.73 20.22-46h8.56l20.22 46h-8.1L278.7 47.9h-17.95l-7.65 18.72h-7.74Z" fill="#000"/><path d="m287.25 36.54-44.52 25.4 42.82-26.43 1.7 1.03Z" fill="#000"/><path d="m283.84 34.56 14.92-6.06-12.4 10.27-2.52-4.21ZM243.78 59.46l3.94-.4-2.22 3.27-6.15 3.67 2.22-3.27-3.94.4 6.15-3.67ZM0 66.62V3.65h36.29v6.72H7.97v21.31h24v6.72h-24v28.22H0ZM63.5 67.78c-3.77 0-7.33-.96-10.66-2.88a21.8 21.8 0 0 1-7.96-8.36c-1.99-3.64-2.98-8.03-2.98-13.15 0-5.25 1-9.7 2.98-13.34a21.8 21.8 0 0 1 7.96-8.35 20.98 20.98 0 0 1 10.66-2.88 20.64 20.64 0 0 1 18.53 11.23c2.05 3.65 3.07 8.1 3.07 13.34 0 5.12-1.02 9.5-3.07 13.15A20.64 20.64 0 0 1 63.5 67.77Zm0-6.53a11.5 11.5 0 0 0 9.7-4.9c2.5-3.33 3.74-7.65 3.74-12.96 0-5.37-1.25-9.73-3.74-13.05-2.44-3.33-5.67-5-9.7-5-3.97 0-7.2 1.67-9.7 5-2.5 3.32-3.74 7.68-3.74 13.05 0 5.31 1.25 9.63 3.74 12.96 2.5 3.27 5.73 4.9 9.7 4.9ZM97.39 66.62V19.97h6.53l.67 6.72h.29a30.5 30.5 0 0 1 6.72-5.57 14.31 14.31 0 0 1 7.77-2.3c3.59 0 6.37.8 8.35 2.4a13.22 13.22 0 0 1 4.52 6.52 41.83 41.83 0 0 1 7.39-6.43c2.5-1.66 5.15-2.5 7.97-2.5 4.8 0 8.35 1.57 10.65 4.71 2.37 3.07 3.55 7.58 3.55 13.54v29.56h-7.87v-28.5c0-4.36-.7-7.53-2.11-9.51-1.4-1.99-3.58-2.98-6.53-2.98-3.45 0-7.36 2.4-11.71 7.2v33.8h-7.87V38.1c0-4.35-.7-7.52-2.11-9.5-1.41-1.99-3.62-2.98-6.63-2.98-3.45 0-7.36 2.4-11.71 7.2v33.8h-7.87ZM176.98 66.62V19.97h7.87v46.65h-7.87Zm4.03-56.25a5.62 5.62 0 0 1-3.84-1.35 5.19 5.19 0 0 1-1.44-3.84c0-1.53.48-2.78 1.44-3.74A5.4 5.4 0 0 1 181.01 0a5.06 5.06 0 0 1 5.28 5.18c0 1.6-.5 2.88-1.53 3.84-.96.9-2.21 1.35-3.75 1.35ZM200.6 66.62V19.97h6.53l.68 6.72h.28c2.25-2.24 4.61-4.1 7.1-5.57 2.5-1.54 5.35-2.3 8.55-2.3 4.93 0 8.51 1.56 10.75 4.7 2.3 3.07 3.46 7.58 3.46 13.54v22.56c0 1.5-7.87 7-7.87 7v-28.5c0-4.36-.7-7.53-2.11-9.51-1.41-1.99-3.65-2.98-6.72-2.98-2.37 0-4.51.61-6.44 1.83-1.85 1.21-3.96 3-6.33 5.37v33.8h-7.87Z" fill="#000"/></svg>