<svg width="47" height="47" viewBox="0 0 47 47" fill="none" xmlns="http://www.w3.org/2000/svg">
<circle cx="23.5" cy="23.5" r="23.5" fill="#D3D3D3"/>
<path fill-rule="evenodd" clip-rule="evenodd" d="M23.1772 15.0167C22.9335 15.0959 22.7929 15.2366 22.7249 15.4663C22.6865 15.5949 22.6799 15.8939 22.6799 17.4547C22.6799 19.5222 22.6777 19.4959 22.8885 19.7069C23.1706 19.9883 23.8294 19.9883 24.1115 19.7069C24.3223 19.4959 24.3201 19.5222 24.3201 17.4547C24.3201 15.4542 24.3168 15.419 24.1544 15.2256C24.0182 15.064 23.8722 15.0101 23.5439 15.0014C23.3825 14.997 23.2178 15.0036 23.1772 15.0167ZM17.7393 17.1887C17.5658 17.2678 17.31 17.5185 17.2211 17.6965C17.1288 17.8823 17.1245 18.0889 17.2079 18.2736C17.2891 18.4549 19.8407 21.0182 20.0416 21.1204C20.3259 21.2666 20.618 21.1952 20.9122 20.9072C21.2021 20.6236 21.2789 20.3158 21.1318 20.029C21.0297 19.8278 18.4694 17.2733 18.2882 17.192C18.1214 17.1162 17.9018 17.1151 17.7393 17.1887ZM28.8281 17.2063C28.6931 17.2689 28.4625 17.4855 27.3624 18.5901C26.3513 19.6047 26.0428 19.9322 25.9933 20.0399C25.9099 20.2213 25.911 20.4312 25.9944 20.6093C26.0713 20.7742 26.3238 21.0336 26.494 21.1226C26.6664 21.2128 26.9222 21.2117 27.1011 21.1204C27.2845 21.0259 29.8207 18.4868 29.9151 18.3033C30.0062 18.1252 30.0073 17.868 29.9184 17.6976C29.8283 17.525 29.5956 17.2964 29.4199 17.2074C29.2234 17.1074 29.0422 17.1074 28.8281 17.2063ZM15.4842 22.7131C15.1603 22.8153 15 23.0737 15 23.4902C15.0011 23.9156 15.1592 24.1706 15.4831 24.2673C15.6126 24.3058 15.9014 24.3124 17.4703 24.3124C19.1051 24.3124 19.3236 24.3069 19.4575 24.263C19.6551 24.1992 19.8154 24.0387 19.8791 23.8409C19.9735 23.5496 19.9263 23.1363 19.7759 22.9319C19.743 22.8879 19.6485 22.8142 19.5662 22.7692L19.4158 22.6856L17.5131 22.679C15.9815 22.6747 15.5852 22.6812 15.4842 22.7131ZM27.6117 22.6977C27.4766 22.7307 27.29 22.8439 27.2241 22.933C27.0737 23.1363 27.0265 23.5496 27.1209 23.8409C27.1846 24.0387 27.3449 24.1992 27.5425 24.263C27.6764 24.3069 27.8949 24.3124 29.5297 24.3124C31.0986 24.3124 31.3874 24.3058 31.5169 24.2673C31.8408 24.1706 31.9989 23.9156 32 23.4902C32 23.0671 31.8386 22.8131 31.5037 22.712C31.3907 22.678 31.036 22.6714 29.5341 22.6736C28.5262 22.6758 27.6611 22.6867 27.6117 22.6977ZM20.0449 25.9996C19.9098 26.0623 19.6793 26.2788 18.5792 27.3835C17.568 28.398 17.2595 28.7256 17.2101 28.8333C17.1266 29.0147 17.1277 29.2246 17.2112 29.4027C17.288 29.5675 17.5406 29.8269 17.7107 29.916C17.8831 30.0061 18.1389 30.005 18.3179 29.9138C18.5012 29.8192 21.0374 27.2802 21.1318 27.0966C21.2229 26.9185 21.224 26.6613 21.1351 26.491C21.0451 26.3184 20.8123 26.0898 20.6367 26.0007C20.4401 25.9007 20.259 25.9007 20.0449 25.9996ZM26.5225 25.9821C26.3491 26.0612 26.0933 26.3118 26.0043 26.4899C25.9121 26.6756 25.9077 26.8823 25.9912 27.0669C26.0724 27.2483 28.6239 29.8116 28.8249 29.9138C29.1092 30.06 29.4013 29.9885 29.6955 29.7005C29.9853 29.417 30.0622 29.1092 29.9151 28.8223C29.813 28.6212 27.2526 26.0667 27.0715 25.9853C26.9046 25.9095 26.685 25.9084 26.5225 25.9821ZM23.22 27.0933C23.0828 27.1285 22.8972 27.2417 22.8325 27.3296C22.681 27.5341 22.6799 27.5484 22.6799 29.5247C22.6799 31.0987 22.6865 31.3878 22.7249 31.5175C22.8215 31.8417 23.0773 32 23.5 32C23.9227 32 24.1785 31.8417 24.2751 31.5175C24.3432 31.2844 24.3421 27.7506 24.2729 27.5473C24.2071 27.3538 24.1313 27.2615 23.9611 27.1692C23.8404 27.1032 23.7701 27.0867 23.5626 27.079C23.4231 27.0735 23.2694 27.0801 23.22 27.0933Z" fill="black"/>
</svg>
