<svg width="123" height="36" viewBox="0 0 123 36" fill="none" xmlns="http://www.w3.org/2000/svg">
<path d="M6.28798 0.121738C3.7915 1.17673 1.03643 4.17091 0.171119 7.91865C-0.932899 12.6711 3.65226 14.6807 4.02026 14.0175C4.45789 13.2439 3.19474 12.9826 2.93614 10.5109C2.60792 7.33589 4.07994 3.77905 5.91997 2.22168C6.25814 1.9303 6.24819 2.3322 6.24819 3.08577C6.24819 4.4221 6.17857 16.4088 6.17857 18.9107C6.17857 22.2967 6.03932 23.3618 5.79067 24.4268C5.54202 25.5019 5.13423 26.2253 5.44256 26.4966C5.78072 26.8081 7.25275 26.0646 8.09817 24.8689C9.11267 23.4321 9.47073 21.714 9.53041 19.8451C9.60998 17.5945 9.60003 14.0175 9.60998 11.9779C9.60998 10.109 9.63981 4.6331 9.58014 1.33749C9.56025 0.523641 7.34226 -0.320355 6.28798 0.121738ZM95.1167 15.9668C95.0371 17.7251 94.6492 19.1016 94.1718 20.0762C93.2468 21.9551 91.3173 22.5379 90.5017 19.8351C90.0541 18.3681 90.0342 15.9065 90.3525 13.8467C90.6807 11.7568 91.5858 10.1693 93.0976 10.32C94.5895 10.4607 95.2758 12.3898 95.1167 15.9668ZM70.0823 26.8885C70.0624 29.8123 69.6049 32.3744 68.6302 33.118C67.2477 34.1729 65.3778 33.3792 65.7657 31.2491C66.1039 29.3602 67.7251 27.431 70.0823 25.0799C70.0823 25.0799 70.0923 25.6124 70.0823 26.8885ZM69.7044 15.9567C69.6248 17.5643 69.2071 19.1719 68.7595 20.0762C67.8345 21.9551 65.895 22.5379 65.0894 19.8351C64.5423 17.9863 64.6716 15.595 64.9402 14.0879C65.2883 12.1286 66.1437 10.32 67.6853 10.32C69.1772 10.32 69.9132 11.9779 69.7044 15.9567ZM55.2029 15.9266C55.1134 17.6246 54.7852 19.0413 54.2581 20.0762C53.3032 21.9451 51.4234 22.5379 50.5879 19.8351C49.9912 17.8959 50.1901 15.2433 50.4388 13.8065C50.8068 11.6764 51.7318 10.1794 53.1839 10.32C54.6659 10.4707 55.3919 12.3898 55.2029 15.9266ZM121.663 17.9059C121.295 17.9059 121.136 18.2877 120.996 18.9207C120.519 21.1312 120.022 21.6336 119.375 21.6336C118.659 21.6336 118.013 20.5384 117.844 18.348C117.714 16.6198 117.734 13.4549 117.903 10.2899C117.933 9.63678 117.764 9.00379 116.033 8.37079C115.287 8.09951 114.213 7.6976 113.676 9.00379C112.164 12.7013 111.568 15.6352 111.428 16.8208C111.418 16.8811 111.349 16.8911 111.329 16.7505C111.239 15.7959 111.04 14.0577 111.021 10.4205C111.021 9.70712 110.871 9.10426 110.086 8.61193C109.578 8.29041 108.057 7.7177 107.5 8.40093C107.022 8.95355 106.465 10.4406 105.898 12.209C105.431 13.6458 105.103 14.6103 105.103 14.6103C105.103 14.6103 105.113 10.742 105.113 9.27507C105.113 8.72246 104.735 8.5416 104.625 8.50141C104.118 8.3507 103.113 8.09951 102.686 8.09951C102.159 8.09951 102.029 8.40093 102.029 8.83298C102.029 8.89326 101.95 13.9271 101.95 17.4538C101.95 17.6045 101.95 17.7753 101.95 17.9562C101.661 19.5738 100.716 21.7742 99.6819 21.7742C98.6575 21.7742 98.1701 20.8499 98.1701 16.66C98.1701 14.2084 98.2397 13.1434 98.2795 11.375C98.2994 10.3502 98.3392 9.56645 98.3392 9.39564C98.3293 8.85307 97.3943 8.57174 96.9666 8.47127C96.529 8.37079 96.1511 8.3306 95.8527 8.3507C95.4349 8.37079 95.1366 8.65212 95.1366 9.03393C95.1366 9.23488 95.1366 9.62674 95.1366 9.62674C94.5995 8.77269 93.7242 8.16984 93.1473 7.99903C91.5957 7.5268 89.9646 7.94879 88.7412 9.67697C87.7665 11.0535 87.1797 12.6109 86.9509 14.8515C86.7818 16.4892 86.8415 18.1471 87.1399 19.5537C86.7818 21.1412 86.1055 21.7843 85.3695 21.7843C84.2953 21.7843 83.5195 20.0159 83.609 16.9715C83.6687 14.962 84.0665 13.5553 84.5042 11.5157C84.6931 10.6516 84.534 10.1894 84.166 9.75735C83.8179 9.35545 83.0819 9.1545 82.0176 9.40569C81.2617 9.58655 80.1776 9.77745 79.193 9.92816C79.193 9.92816 79.2526 9.68702 79.3024 9.26502C79.561 7.04451 77.1639 7.22537 76.408 7.9287C75.9505 8.3507 75.6422 8.85307 75.5228 9.74731C75.3339 11.1741 76.4876 11.8472 76.4876 11.8472C76.1097 13.5955 75.1847 15.8763 74.2298 17.5241C73.7226 18.4083 73.3247 19.0614 72.8175 19.7647C72.8175 19.5035 72.8175 19.2423 72.8175 18.9911C72.8075 15.3137 72.8573 12.43 72.8772 11.3851C72.8971 10.3602 72.9369 9.59659 72.9369 9.42579C72.9269 9.02388 72.6981 8.87317 72.2207 8.68227C71.793 8.51146 71.2957 8.40093 70.7785 8.36074C70.1221 8.28036 69.7243 8.63203 69.7342 9.04398C69.7342 9.12436 69.7342 9.60664 69.7342 9.60664C69.1971 8.7526 68.3219 8.14974 67.745 7.97894C66.1934 7.51675 64.5622 7.9287 63.3389 9.65688C62.3641 11.0334 61.7276 12.9625 61.5486 14.8113C61.3795 16.5395 61.4093 17.9964 61.6381 19.2322C61.3894 20.4681 60.6832 21.7642 59.8776 21.7642C58.8532 21.7642 58.2663 20.8398 58.2663 16.65C58.2663 14.1984 58.336 13.1333 58.3757 11.365C58.3956 10.3401 58.4354 9.5564 58.4354 9.38559C58.4255 8.84303 57.4905 8.56169 57.0629 8.46122C56.6053 8.3507 56.2174 8.32055 55.9191 8.34065C55.5212 8.37079 55.2427 8.7325 55.2427 8.99374V9.61669C54.7056 8.76264 53.8304 8.15979 53.2535 7.98898C51.7019 7.52679 50.0807 7.93875 48.8474 9.66693C48.0417 10.7923 47.3952 12.0382 47.0571 14.8012C46.9576 15.595 46.9178 16.3486 46.9278 17.0418C46.6095 19.0212 45.1872 21.3121 44.0335 21.3121C43.3571 21.3121 42.7106 19.9858 42.7106 17.1524C42.7106 13.3745 42.9394 8.00908 42.9792 7.4866C42.9792 7.4866 44.4412 7.46651 44.7297 7.45646C45.4558 7.44641 46.1221 7.46651 47.0969 7.41627C47.5842 7.39618 48.0517 5.61776 47.5544 5.40676C47.3256 5.30628 45.7144 5.21585 45.0679 5.20581C44.5308 5.19576 43.0289 5.08524 43.0289 5.08524C43.0289 5.08524 43.1681 1.51835 43.198 1.14659C43.2278 0.835115 42.82 0.674354 42.5913 0.573879C42.0343 0.332737 41.527 0.222214 40.9303 0.0915955C40.1047 -0.0792131 39.7367 0.0915955 39.6671 0.784878C39.5577 1.84992 39.498 4.96467 39.498 4.96467C38.8913 4.96467 36.8325 4.8441 36.2357 4.8441C35.6787 4.8441 35.072 7.27561 35.8478 7.30575C36.743 7.33589 38.2946 7.36603 39.319 7.40622C39.319 7.40622 39.2693 12.8721 39.2693 14.55C39.2693 14.7309 39.2693 14.9017 39.2693 15.0725C38.7023 18.0566 36.7032 19.6643 36.7032 19.6643C37.1309 17.6949 36.2556 16.2079 34.6742 14.9519C34.0973 14.4898 32.9435 13.6156 31.6605 12.6511C31.6605 12.6511 32.4065 11.9075 33.0629 10.4205C33.5304 9.3655 33.5503 8.15979 32.4065 7.88851C30.5167 7.44641 28.9452 8.85307 28.4877 10.3502C28.1296 11.5157 28.3186 12.3798 29.0248 13.274C29.0745 13.3343 29.1342 13.4046 29.1939 13.475C28.7662 14.3089 28.1794 15.4242 27.6821 16.2983C26.2995 18.7097 25.2552 20.6188 24.4695 20.6188C23.8429 20.6188 23.8429 18.6796 23.8429 16.861C23.8429 15.2936 23.9523 12.9424 24.0517 10.5109C24.0816 9.70712 23.6837 9.24493 23.0173 8.83298C22.6095 8.58179 21.7442 8.07941 21.2469 8.07941C20.491 8.07941 18.3327 8.17989 16.2838 14.1682C16.0252 14.9218 15.518 16.2983 15.518 16.2983L15.5577 9.10426C15.5577 8.93345 15.4682 8.77269 15.2693 8.66217C14.9212 8.47127 14.0062 8.08946 13.1806 8.08946C12.7927 8.08946 12.5938 8.27032 12.5938 8.64207L12.5043 19.8953C12.5043 20.7494 12.5242 21.7441 12.6137 22.1862C12.6933 22.6182 12.8325 22.98 13.0016 23.191C13.1707 23.402 13.3597 23.5627 13.6779 23.633C13.9763 23.6933 15.5975 23.9043 15.687 23.2814C15.7865 22.5278 15.7965 21.714 16.6419 18.6796C17.9647 13.9572 19.7053 11.6563 20.5109 10.8425C20.6502 10.7018 20.8192 10.6918 20.8093 10.9229C20.7695 11.9578 20.6502 14.54 20.5706 16.7404C20.3518 22.6182 21.4061 23.7134 22.9179 23.7134C24.0716 23.7134 25.7028 22.5479 27.4533 19.614C28.5474 17.7854 29.6017 15.9868 30.3675 14.6907C30.8946 15.183 31.4914 15.7156 32.0882 16.2883C33.4707 17.6146 33.9282 18.8705 33.6199 20.0662C33.3911 20.9805 32.5258 21.9149 30.9842 21.0006C30.5366 20.7293 30.3377 20.5283 29.8901 20.2269C29.6514 20.0662 29.2734 20.0159 29.0546 20.1867C28.4777 20.6288 28.1495 21.1915 27.9605 21.8747C27.7815 22.5479 28.4479 22.9096 29.1342 23.2211C29.731 23.4924 31.014 23.7335 31.8296 23.7637C35.0123 23.8742 37.5685 22.2063 39.3488 17.926C39.6671 21.6235 41.0198 23.7235 43.377 23.7235C44.9485 23.7235 46.5299 21.6738 47.2162 19.6542C47.4151 20.4781 47.7036 21.1915 48.0815 21.7943C49.8917 24.6981 53.4126 24.0751 55.1731 21.6034C55.7201 20.8398 55.7997 20.5685 55.7997 20.5685C56.0583 22.8895 57.9083 23.7034 58.9725 23.7034C60.166 23.7034 61.3894 23.1407 62.2448 21.1814C62.3442 21.3924 62.4537 21.5934 62.573 21.7843C64.3832 24.688 67.9041 24.055 69.6646 21.5934C69.7441 21.4829 69.8237 21.3723 69.8834 21.2819L69.9331 22.8091C69.9331 22.8091 68.9286 23.7436 68.3119 24.3163C65.5867 26.8382 63.5179 28.7573 63.3687 30.9778C63.1698 33.8213 65.4574 34.8763 67.1781 35.0169C69.0081 35.1677 70.5796 34.1428 71.5444 32.706C72.3898 31.4501 72.9468 28.7372 72.907 26.0545C72.8871 24.9794 72.8672 23.623 72.8473 22.1561C73.8022 21.0307 74.8763 19.614 75.8709 17.9562C76.9551 16.1476 78.1088 13.7161 78.7056 11.8272C78.7056 11.8272 79.7102 11.8372 80.7843 11.7669C81.1324 11.7468 81.2319 11.8171 81.1623 12.0683C81.0827 12.3798 79.8096 17.3634 80.9733 20.6891C81.769 22.9599 83.5792 23.6933 84.6434 23.6933C85.8966 23.6933 87.0902 22.7388 87.7367 21.3221C87.8162 21.4829 87.8958 21.6336 87.9853 21.7742C89.7955 24.678 93.2965 24.045 95.0769 21.5833C95.4747 21.0307 95.7035 20.5484 95.7035 20.5484C96.0814 22.9599 97.9414 23.7034 98.9957 23.7034C100.1 23.7034 101.154 23.2412 101.999 21.2116C102.039 22.1058 102.089 22.8393 102.178 23.0704C102.228 23.211 102.546 23.3919 102.775 23.4723C103.79 23.8541 104.814 23.6732 105.202 23.5929C105.471 23.5426 105.669 23.3216 105.699 22.769C105.769 21.3121 105.729 18.8705 106.167 17.0619C106.903 14.0175 107.579 12.8319 107.907 12.2492C108.086 11.9176 108.295 11.8673 108.305 12.209C108.325 12.9123 108.355 14.972 108.633 17.7351C108.842 19.7748 109.121 20.9704 109.33 21.3522C109.936 22.4374 110.692 22.4876 111.309 22.4876C111.697 22.4876 112.512 22.3771 112.443 21.6838C112.403 21.3422 112.473 19.2624 113.189 16.2581C113.656 14.2989 114.442 12.5305 114.73 11.8874C114.84 11.6463 114.88 11.8372 114.88 11.8774C114.82 13.2238 114.691 17.6346 115.228 20.0461C115.964 23.3115 118.102 23.6833 118.838 23.6833C120.42 23.6833 121.723 22.4675 122.16 19.2523C122.289 18.5088 122.13 17.9059 121.663 17.9059Z" fill="white"/>
</svg>
