<svg width="164" height="35" viewBox="0 0 164 35" fill="none" xmlns="http://www.w3.org/2000/svg">
<path fill-rule="evenodd" clip-rule="evenodd" d="M19.8941 0.0963043C16.2321 -0.282439 12.5405 0.46174 9.32668 2.22655C6.11289 3.99137 3.5347 6.69018 1.94649 9.95204C0.358268 13.2139 -0.16201 16.8787 0.457166 20.4426C1.07634 24.0066 2.80457 27.2948 5.40432 29.8552C8.00406 32.4157 11.3477 34.1227 14.9756 34.7416C18.6035 35.3606 22.3377 34.8611 25.6647 33.3118C28.9918 31.7625 31.7485 29.2395 33.5559 26.0895C35.3632 22.9396 36.1326 19.3173 35.7582 15.7206C35.3461 11.7226 33.5436 7.98616 30.6542 5.14035C27.7647 2.29454 23.9647 0.513208 19.8941 0.0963043ZM19.3166 26.761C17.347 27.0204 15.3442 26.6674 13.5895 25.7515C11.8349 24.8356 10.4167 23.4029 9.53419 21.6547C8.65169 19.9066 8.3493 17.9308 8.66949 16.0052C8.98969 14.0796 9.91639 12.3009 11.3193 10.9191C12.7223 9.5373 14.531 8.62187 16.4912 8.30146C18.4514 7.98105 20.4646 8.27178 22.2478 9.13277C24.0311 9.99377 25.4947 11.3818 26.433 13.1017C27.3714 14.8216 27.7372 16.7869 27.4791 18.7215C27.2083 20.7564 26.2619 22.6468 24.7862 24.1002C23.3106 25.5536 21.3882 26.4888 19.3166 26.761ZM45.2913 0.788624C44.6731 0.790077 44.063 0.926826 43.5054 1.18892C42.9479 1.45101 42.4568 1.83186 42.068 2.30375C41.6792 2.77563 41.4025 3.32669 41.2579 3.91681C41.1133 4.50694 41.1045 5.12129 41.2322 5.71516C41.6233 7.63912 43.4536 8.9537 45.4474 8.9537H57.0182L39.0115 32.3505C38.8783 32.5232 38.7968 32.7289 38.776 32.9446C38.7552 33.1603 38.7961 33.3774 38.8939 33.5715C38.9918 33.7657 39.1428 33.9293 39.33 34.0439C39.5172 34.1585 39.7333 34.2197 39.9539 34.2206H68.1991C70.1917 34.2206 72.0233 32.9063 72.4144 30.982C72.5421 30.3882 72.5334 29.774 72.3889 29.1839C72.2445 28.5939 71.9679 28.0428 71.5793 27.5709C71.1907 27.099 70.6998 26.718 70.1424 26.4558C69.585 26.1935 68.9751 26.0566 68.357 26.0548H54.2589L72.2518 2.67623C72.3863 2.50182 72.4686 2.29408 72.4895 2.0763C72.5105 1.85852 72.4692 1.63932 72.3703 1.4433C72.2714 1.24728 72.1189 1.08219 71.9297 0.966547C71.7406 0.850908 71.5224 0.789296 71.2997 0.788624H45.2913ZM158.157 0.882806C157.222 1.10113 156.391 1.62625 155.801 2.37136C155.211 3.11646 154.898 4.03692 154.913 4.98054V18.5751L132.478 1.04539C132.302 0.908268 132.09 0.822695 131.867 0.798517C131.643 0.774339 131.418 0.812539 131.215 0.908723C131.013 1.00491 130.843 1.15517 130.724 1.34222C130.605 1.52927 130.542 1.74551 130.543 1.96606V30.0359C130.527 30.9795 130.841 31.9 131.431 32.6451C132.02 33.3903 132.852 33.9154 133.787 34.1336C134.394 34.2648 135.024 34.2605 135.629 34.121C136.234 33.9814 136.8 33.7102 137.284 33.3274C137.768 32.9446 138.159 32.4599 138.427 31.9091C138.695 31.3583 138.834 30.7554 138.833 30.145V16.4327L161.269 33.9628C161.445 34.0998 161.657 34.1854 161.88 34.2095C162.103 34.2337 162.329 34.1955 162.531 34.0993C162.733 34.0032 162.903 33.853 163.022 33.666C163.141 33.4791 163.204 33.2629 163.203 33.0424V4.87017C163.204 4.25985 163.065 3.65716 162.797 3.10655C162.529 2.55593 162.138 2.07143 161.654 1.68877C161.17 1.3061 160.604 1.03503 159.999 0.895543C159.394 0.756053 158.765 0.7517 158.157 0.882806ZM99.7411 8.17215C109.231 8.17215 116.321 13.096 116.321 17.5005C116.321 21.9049 109.231 26.8288 99.7411 26.8288C90.2514 26.8288 83.1608 21.9049 83.1608 17.5005C83.1608 13.096 90.2514 8.17215 99.7411 8.17215ZM99.7411 0.00740979C86.0052 0.00740979 74.8704 7.83938 74.8704 17.5005C74.8704 27.1615 86.0052 34.9935 99.7411 34.9935C113.477 34.9935 124.612 27.1615 124.612 17.5005C124.612 7.83938 113.477 0.00740979 99.7411 0.00740979Z" fill="white"/>
</svg>
