<svg width="307" height="36" viewBox="0 0 307 36" fill="none" xmlns="http://www.w3.org/2000/svg">
<path d="M9.54275 34.3771L0.203369 0.620808H6.32975L13.5067 26.5458L21.1975 0.618309L26.9083 0.620808L34.6259 26.6846L41.8347 0.627059L47.9611 0.618309L38.6166 34.3708L31.5149 34.3633L24.0561 9.15456L16.5871 34.3696L9.54275 34.3771ZM52.1864 0.638308H58.0183V34.3533H52.1864V0.638308ZM70.4878 29.0658H84.685V34.3546H64.7758V0.638308H70.4878V29.0658ZM102.624 0.677058C107.411 0.677058 111.392 2.30956 114.53 5.53831C117.707 8.76581 119.314 12.7708 119.314 17.5158C119.314 22.2208 117.706 26.2271 114.528 29.4933C111.391 32.7208 107.409 34.3546 102.623 34.3546H88.909V0.638308H102.624V0.675808V0.677058ZM102.624 29.1046C105.923 29.1046 108.617 28.0158 110.629 25.8383C112.72 23.6608 113.765 20.8596 113.765 17.5546C113.765 14.1708 112.72 11.4496 110.629 9.27081C108.576 7.09331 105.882 6.00456 102.624 6.00456H94.6606V29.1046H102.624ZM150.085 24.7233C150.085 27.4858 149.08 29.7808 147.029 31.6096C144.977 33.4383 142.564 34.3721 139.588 34.3721H124.665V0.638308H138.501C141.357 0.638308 143.77 1.57206 145.741 3.32206C147.753 5.11206 148.718 7.33081 148.718 9.97581C148.718 12.9333 147.511 15.1896 145.179 16.8633C148.235 18.4196 150.085 21.2208 150.085 24.7233ZM130.417 5.85206V14.7233H138.541C141.076 14.7233 143.006 12.7771 143.006 10.2871C143.006 7.79706 141.076 5.85206 138.541 5.85206H130.417ZM139.627 29.1583C142.282 29.1583 144.374 27.0958 144.374 24.4508C144.374 21.8046 142.282 19.7421 139.627 19.7421H130.417V29.1971H139.627V29.1583ZM161.226 29.0808H176.671V34.3721H155.515V0.638308H176.43V5.92956H161.226V14.6846H175.183V19.9371H161.226V29.0808ZM201.689 34.3721L194.288 22.0771H187.53V34.3721H181.82V0.638308H195.776C198.914 0.638308 201.568 1.68831 203.7 3.82831C205.871 5.89081 206.998 8.45831 206.998 11.4933C206.998 15.7733 204.223 19.7033 200.08 21.2596L208.003 34.3721H201.689ZM187.53 5.85206V17.1358H195.736C198.792 17.1358 201.206 14.6446 201.206 11.4933C201.206 8.38081 198.753 5.85206 195.736 5.85206H187.53ZM232.217 34.3721L224.856 22.0708H218.099V34.3721H212.388V0.620808H226.344C229.482 0.620808 232.136 1.67081 234.268 3.81331C236.439 5.87581 237.567 8.44581 237.567 11.4821C237.567 15.7646 234.791 19.6958 230.648 21.2533L238.571 34.3721H232.217ZM218.099 5.83706V17.1271H226.304C229.361 17.1271 231.774 14.6346 231.774 11.4821C231.774 8.36706 229.321 5.83706 226.304 5.83706H218.099ZM242.755 0.624559H248.467V34.3721H242.755V0.624559ZM260.935 29.0808H276.38V34.3721H255.223V0.638308H276.138V5.92956H260.935V14.6846H274.891V19.9371H260.935V29.0808ZM280.362 26.6933L285.309 23.8933C286.717 27.7058 289.573 29.5708 293.956 29.5708C298.3 29.5708 300.432 27.7833 300.432 25.1383C300.432 23.7383 299.829 22.7258 298.703 22.0258C297.576 21.2883 295.485 20.4708 292.509 19.6158C289.17 18.6433 287.521 18.0208 285.188 16.5433C282.936 14.9883 281.809 12.7708 281.809 9.73831C281.809 6.74331 282.895 4.41081 285.108 2.66081C287.28 0.870807 289.935 0.0158081 293.032 0.0158081C298.623 0.0158081 302.926 2.81581 305.179 7.44331L300.351 10.1271C298.903 7.01581 296.45 5.42081 293.032 5.42081C289.692 5.42081 287.561 7.05456 287.561 9.62081C287.561 12.1108 289.25 13.2771 294.6 14.8708C295.927 15.2996 296.892 15.6108 297.495 15.8433C298.139 16.0383 298.983 16.3883 300.07 16.8158C301.197 17.2433 302.082 17.7496 302.604 18.1771C304.454 19.5771 306.424 21.8708 306.183 25.0996C306.183 28.1321 305.057 30.5821 302.765 32.3708C300.512 34.1608 297.536 35.0158 293.836 35.0158C287.079 34.9771 282.171 31.8658 280.362 26.6933Z" fill="white"/>
</svg>
