<svg width="203" height="48" fill="none" xmlns="http://www.w3.org/2000/svg"><path d="M0 47.2V2.6h25.7v4.7h-20v15.1h17v4.8h-17v20H0ZM45 48a14.8 14.8 0 0 1-13.2-8 19.2 19.2 0 0 1-2.1-9.3c0-3.7.7-6.8 2-9.4a14.8 14.8 0 0 1 26.3 0 19 19 0 0 1 2.2 9.4c0 3.7-.7 6.8-2.1 9.3A14.6 14.6 0 0 1 45 48Zm0-4.6c2.8 0 5-1.2 6.8-3.5a15 15 0 0 0 2.7-9.2 15 15 0 0 0-2.7-9.2 8 8 0 0 0-6.9-3.6 8.2 8.2 0 0 0-6.8 3.6 15 15 0 0 0-2.7 9.2c0 3.8 1 6.9 2.7 9.2 1.8 2.3 4 3.5 6.8 3.5ZM69 47.2v-33h4.6l.4 4.7h.2c1.5-1.6 3-2.9 4.8-4 1.7-1 3.5-1.6 5.5-1.6 2.5 0 4.5.6 5.9 1.7 1.5 1.1 2.5 2.7 3.2 4.6 1.7-1.8 3.5-3.3 5.2-4.5a10 10 0 0 1 5.7-1.8c3.4 0 5.9 1.1 7.5 3.4 1.7 2.1 2.5 5.3 2.5 9.5v21H109V27c0-3-.5-5.3-1.5-6.7-1-1.4-2.6-2.1-4.7-2.1-2.4 0-5.2 1.7-8.3 5v24H89V27c0-3-.5-5.3-1.5-6.7-1-1.4-2.6-2.1-4.7-2.1-2.5 0-5.2 1.7-8.3 5v24h-5.6ZM125.3 47.2v-33h5.5v33h-5.5ZM128 7.3c-1 0-2-.3-2.7-1-.7-.6-1-1.5-1-2.6s.3-2 1-2.7c.7-.7 1.6-1 2.7-1a3.6 3.6 0 0 1 3.8 3.7c0 1.1-.4 2-1.1 2.7-.7.6-1.6 1-2.7 1ZM142 47.2v-33h4.6l.5 4.7h.2c1.6-1.6 3.3-2.9 5-4 1.8-1 3.8-1.6 6-1.6 3.6 0 6 1.1 7.7 3.4 1.6 2.1 2.4 5.3 2.4 9.5v21H163V27c0-3-.5-5.3-1.5-6.7-1-1.4-2.6-2.1-4.8-2.1-1.7 0-3.2.4-4.6 1.2-1.3 1-2.8 2.2-4.4 3.9v23.9H142ZM186.8 48c-2.8 0-5.1-.8-7-2.4a9 9 0 0 1-2.7-7c0-3.6 1.6-6.4 4.8-8.3 3.3-2 8.4-3.3 15.5-4a13 13 0 0 0-.7-4c-.3-1.3-1-2.4-2-3.1-1-.8-2.3-1.3-4.1-1.3-2 0-3.7.4-5.4 1.1-1.7.8-3.2 1.6-4.5 2.5l-2.2-3.9c1.6-1 3.5-2 5.7-2.8 2.2-1 4.7-1.5 7.3-1.5 4 0 7 1.3 8.8 3.8 1.8 2.4 2.7 5.7 2.7 9.8v20.3h-4.6l-.5-4h-.2a28.2 28.2 0 0 1-5.1 3.4c-1.8 1-3.8 1.4-5.8 1.4Zm1.6-4.5c1.6 0 3-.4 4.5-1.1 1.4-.8 2.9-1.9 4.5-3.3v-9.2a31 31 0 0 0-11.6 3c-2.2 1.4-3.3 3.2-3.3 5.3 0 1.9.6 3.2 1.7 4 1.2.9 2.6 1.3 4.2 1.3Z" fill="#fff"/></svg>